# Blender 3.6.1
# www.blender.org
mtllib sphere.mtl
o Cube
v 0.760298 0.760298 -0.760298
v 0.760298 -0.760298 -0.760298
v 0.760298 0.760298 0.760298
v 0.760298 -0.760298 0.760298
v -0.760298 0.760298 -0.760298
v -0.760298 -0.760298 -0.760298
v -0.760298 0.760298 0.760298
v -0.760298 -0.760298 0.760298
v -0.877917 -0.877917 -0.438958
v -0.931171 -0.931171 0.000000
v -0.877917 -0.877917 0.438958
v 0.438958 -0.877917 -0.877917
v 0.000000 -0.931171 -0.931171
v -0.438958 -0.877917 -0.877917
v 0.877917 0.438958 -0.877917
v 0.931171 0.000000 -0.931171
v 0.877917 -0.438958 -0.877917
v -0.877917 -0.438958 0.877917
v -0.931171 0.000000 0.931171
v -0.877917 0.438958 0.877917
v 0.877917 0.438958 0.877917
v 0.931171 0.000000 0.931171
v 0.877917 -0.438958 0.877917
v -0.877917 0.438958 -0.877917
v -0.931171 0.000000 -0.931171
v -0.877917 -0.438958 -0.877917
v 0.438958 0.877917 0.877917
v 0.000000 0.931171 0.931171
v -0.438958 0.877917 0.877917
v 0.877917 0.877917 -0.438958
v 0.931171 0.931171 0.000000
v 0.877917 0.877917 0.438958
v -0.438958 -0.877917 0.877917
v 0.000000 -0.931171 0.931171
v 0.438958 -0.877917 0.877917
v -0.877917 0.877917 0.438958
v -0.931171 0.931171 0.000000
v -0.877917 0.877917 -0.438958
v -0.438958 0.877917 -0.877917
v 0.000000 0.931171 -0.931171
v 0.438958 0.877917 -0.877917
v 0.877917 -0.877917 0.438958
v 0.931171 -0.931171 0.000000
v 0.877917 -0.877917 -0.438958
v -0.537612 -0.537612 -1.075224
v 0.000000 -0.588924 -1.177849
v 0.537612 -0.537612 -1.075224
v -0.588924 0.000000 -1.177849
v 0.000000 0.000000 -1.316875
v 0.588924 0.000000 -1.177849
v -0.537612 0.537612 -1.075224
v 0.000000 0.588924 -1.177849
v 0.537612 0.537612 -1.075224
v 1.075224 -0.537612 -0.537612
v 1.177849 -0.588924 0.000000
v 1.075224 -0.537612 0.537612
v 1.177849 0.000000 -0.588924
v 1.316875 0.000000 0.000000
v 1.177849 0.000000 0.588924
v 1.075224 0.537612 -0.537612
v 1.177849 0.588924 0.000000
v 1.075224 0.537612 0.537612
v -0.537612 -1.075224 -0.537612
v -0.588924 -1.177849 0.000000
v -0.537612 -1.075224 0.537612
v 0.000000 -1.177849 -0.588924
v 0.000000 -1.316875 0.000000
v 0.000000 -1.177849 0.588924
v 0.537612 -1.075224 -0.537612
v 0.588924 -1.177849 0.000000
v 0.537612 -1.075224 0.537612
v -1.075224 -0.537612 0.537612
v -1.177849 -0.588924 0.000000
v -1.075224 -0.537612 -0.537612
v -1.177849 0.000000 0.588924
v -1.316875 0.000000 0.000000
v -1.177849 0.000000 -0.588924
v -1.075224 0.537612 0.537612
v -1.177849 0.588924 0.000000
v -1.075224 0.537612 -0.537612
v 0.537612 -0.537612 1.075224
v 0.000000 -0.588924 1.177849
v -0.537612 -0.537612 1.075224
v 0.588924 0.000000 1.177849
v 0.000000 0.000000 1.316875
v -0.588924 0.000000 1.177849
v 0.537612 0.537612 1.075224
v 0.000000 0.588924 1.177849
v -0.537612 0.537612 1.075224
v 0.537612 1.075224 -0.537612
v 0.588924 1.177849 0.000000
v 0.537612 1.075224 0.537612
v 0.000000 1.177849 -0.588924
v 0.000000 1.316875 0.000000
v 0.000000 1.177849 0.588924
v -0.537612 1.075224 -0.537612
v -0.588924 1.177849 0.000000
v -0.537612 1.075224 0.537612
vn -0.4566 0.7058 0.5416
vn -0.5416 0.4566 0.7058
vn -0.7058 0.4566 -0.5416
vn 0.4566 -0.7058 0.5416
vn 0.7058 0.4566 0.5416
vn 0.5416 0.4566 -0.7058
vn 0.4566 -0.5416 -0.7058
vn 0.5350 -0.2074 -0.8190
vn 0.5765 0.1670 -0.7999
vn -0.4566 -0.5416 -0.7058
vn -0.1670 -0.5765 -0.7999
vn 0.1670 -0.5765 -0.7999
vn -0.5350 -0.2074 -0.8190
vn -0.2034 -0.2250 -0.9529
vn 0.2034 -0.2250 -0.9529
vn -0.5765 0.1670 -0.7999
vn -0.2250 0.2034 -0.9529
vn 0.2250 0.2034 -0.9529
vn -0.5416 0.4566 -0.7058
vn -0.2074 0.5350 -0.8190
vn 0.2074 0.5350 -0.8190
vn 0.7058 -0.5416 0.4566
vn 0.8190 -0.2074 0.5350
vn 0.7999 0.1670 0.5765
vn 0.7058 -0.5416 -0.4566
vn 0.7999 -0.5765 -0.1670
vn 0.7999 -0.5765 0.1670
vn 0.8190 -0.2074 -0.5350
vn 0.9529 -0.2250 -0.2034
vn 0.9529 -0.2250 0.2034
vn 0.7999 0.1670 -0.5765
vn 0.9529 0.2034 -0.2250
vn 0.9529 0.2034 0.2250
vn 0.7058 0.4566 -0.5416
vn 0.8190 0.5350 -0.2074
vn 0.8190 0.5350 0.2074
vn -0.5416 -0.7058 0.4566
vn -0.2074 -0.8190 0.5350
vn 0.1670 -0.7999 0.5765
vn -0.5416 -0.7058 -0.4566
vn -0.5765 -0.7999 -0.1670
vn -0.5765 -0.7999 0.1670
vn -0.2074 -0.8190 -0.5350
vn -0.2250 -0.9529 -0.2034
vn -0.2250 -0.9529 0.2034
vn 0.1670 -0.7999 -0.5765
vn 0.2034 -0.9529 -0.2250
vn 0.2034 -0.9529 0.2250
vn 0.4566 -0.7058 -0.5416
vn 0.5350 -0.8190 -0.2074
vn 0.5350 -0.8190 0.2074
vn -0.7058 -0.5416 -0.4566
vn -0.8190 -0.2074 -0.5350
vn -0.7999 0.1670 -0.5765
vn -0.7058 -0.5416 0.4566
vn -0.7999 -0.5765 0.1670
vn -0.7999 -0.5765 -0.1670
vn -0.8190 -0.2074 0.5350
vn -0.9529 -0.2250 0.2034
vn -0.9529 -0.2250 -0.2034
vn -0.7999 0.1670 0.5765
vn -0.9529 0.2034 0.2250
vn -0.9529 0.2034 -0.2250
vn -0.7058 0.4566 0.5416
vn -0.8190 0.5350 0.2074
vn -0.8190 0.5350 -0.2074
vn -0.4566 -0.5416 0.7058
vn -0.5350 -0.2074 0.8190
vn -0.5765 0.1670 0.7999
vn 0.4566 -0.5416 0.7058
vn 0.1670 -0.5765 0.7999
vn -0.1670 -0.5765 0.7999
vn 0.5350 -0.2074 0.8190
vn 0.2034 -0.2250 0.9529
vn -0.2034 -0.2250 0.9529
vn 0.5765 0.1670 0.7999
vn 0.2250 0.2034 0.9529
vn -0.2250 0.2034 0.9529
vn 0.5416 0.4566 0.7058
vn 0.2074 0.5350 0.8190
vn -0.2074 0.5350 0.8190
vn 0.5416 0.7058 0.4566
vn 0.2074 0.8190 0.5350
vn -0.1670 0.7999 0.5765
vn 0.5416 0.7058 -0.4566
vn 0.5765 0.7999 -0.1670
vn 0.5765 0.7999 0.1670
vn 0.2074 0.8190 -0.5350
vn 0.2250 0.9529 -0.2034
vn 0.2250 0.9529 0.2034
vn -0.1670 0.7999 -0.5765
vn -0.2034 0.9529 -0.2250
vn -0.2034 0.9529 0.2250
vn -0.4566 0.7058 -0.5416
vn -0.5350 0.8190 -0.2074
vn -0.5350 0.8190 0.2074
vn -0.5416 0.7058 0.4566
vn -0.4566 0.5416 0.7058
vn -0.7058 0.5416 -0.4566
vn 0.5416 -0.7058 0.4566
vn 0.7058 0.5416 0.4566
vn 0.4566 0.5416 -0.7058
vn 0.5416 -0.4566 -0.7058
vn 0.5765 -0.1670 -0.7999
vn 0.5350 0.2074 -0.8190
vn -0.5416 -0.4566 -0.7058
vn -0.2074 -0.5350 -0.8190
vn 0.2074 -0.5350 -0.8190
vn -0.5765 -0.1670 -0.7999
vn -0.2250 -0.2034 -0.9529
vn 0.2250 -0.2034 -0.9529
vn -0.5350 0.2074 -0.8190
vn -0.2034 0.2250 -0.9529
vn 0.2034 0.2250 -0.9529
vn -0.4566 0.5416 -0.7058
vn -0.1670 0.5765 -0.7999
vn 0.1670 0.5765 -0.7999
vn 0.7058 -0.4566 0.5416
vn 0.7999 -0.1670 0.5765
vn 0.8190 0.2074 0.5350
vn 0.7058 -0.4566 -0.5416
vn 0.8190 -0.5350 -0.2074
vn 0.8190 -0.5350 0.2074
vn 0.7999 -0.1670 -0.5765
vn 0.9529 -0.2034 -0.2250
vn 0.9529 -0.2034 0.2250
vn 0.8190 0.2074 -0.5350
vn 0.9529 0.2250 -0.2034
vn 0.9529 0.2250 0.2034
vn 0.7058 0.5416 -0.4566
vn 0.7999 0.5765 -0.1670
vn 0.7999 0.5765 0.1670
vn -0.4566 -0.7058 0.5416
vn -0.1670 -0.7999 0.5765
vn 0.2074 -0.8190 0.5350
vn -0.4566 -0.7058 -0.5416
vn -0.5350 -0.8190 -0.2074
vn -0.5350 -0.8190 0.2074
vn -0.1670 -0.7999 -0.5765
vn -0.2034 -0.9529 -0.2250
vn -0.2034 -0.9529 0.2250
vn 0.2074 -0.8190 -0.5350
vn 0.2250 -0.9529 -0.2034
vn 0.2250 -0.9529 0.2034
vn 0.5416 -0.7058 -0.4566
vn 0.5765 -0.7999 -0.1670
vn 0.5765 -0.7999 0.1670
vn -0.7058 -0.4566 -0.5416
vn -0.7999 -0.1670 -0.5765
vn -0.8190 0.2074 -0.5350
vn -0.7058 -0.4566 0.5416
vn -0.8190 -0.5350 0.2074
vn -0.8190 -0.5350 -0.2074
vn -0.7999 -0.1670 0.5765
vn -0.9529 -0.2034 0.2250
vn -0.9529 -0.2034 -0.2250
vn -0.8190 0.2074 0.5350
vn -0.9529 0.2250 0.2034
vn -0.9529 0.2250 -0.2034
vn -0.7058 0.5416 0.4566
vn -0.7999 0.5765 0.1670
vn -0.7999 0.5765 -0.1670
vn -0.5416 -0.4566 0.7058
vn -0.5765 -0.1670 0.7999
vn -0.5350 0.2074 0.8190
vn 0.5416 -0.4566 0.7058
vn 0.2074 -0.5350 0.8190
vn -0.2074 -0.5350 0.8190
vn 0.5765 -0.1670 0.7999
vn 0.2250 -0.2034 0.9529
vn -0.2250 -0.2034 0.9529
vn 0.5350 0.2074 0.8190
vn 0.2034 0.2250 0.9529
vn -0.2034 0.2250 0.9529
vn 0.4566 0.5416 0.7058
vn 0.1670 0.5765 0.7999
vn -0.1670 0.5765 0.7999
vn 0.4566 0.7058 0.5416
vn 0.1670 0.7999 0.5765
vn -0.2074 0.8190 0.5350
vn 0.4566 0.7058 -0.5416
vn 0.5350 0.8190 -0.2074
vn 0.5350 0.8190 0.2074
vn 0.1670 0.7999 -0.5765
vn 0.2034 0.9529 -0.2250
vn 0.2034 0.9529 0.2250
vn -0.2074 0.8190 -0.5350
vn -0.2250 0.9529 -0.2034
vn -0.2250 0.9529 0.2034
vn -0.5416 0.7058 -0.4566
vn -0.5765 0.7999 -0.1670
vn -0.5765 0.7999 0.1670
vt 0.812500 0.687500
vt 0.875000 0.750000
vt 0.812500 0.750000
vt 0.562500 0.937500
vt 0.625000 1.000000
vt 0.562500 1.000000
vt 0.562500 0.187500
vt 0.625000 0.250000
vt 0.562500 0.250000
vt 0.312500 0.687500
vt 0.375000 0.750000
vt 0.312500 0.750000
vt 0.562500 0.687500
vt 0.625000 0.750000
vt 0.562500 0.750000
vt 0.562500 0.437500
vt 0.625000 0.500000
vt 0.562500 0.500000
vt 0.437500 0.437500
vt 0.375000 0.500000
vt 0.375000 0.437500
vt 0.500000 0.437500
vt 0.437500 0.500000
vt 0.500000 0.500000
vt 0.375000 0.250000
vt 0.437500 0.312500
vt 0.375000 0.312500
vt 0.437500 0.375000
vt 0.375000 0.375000
vt 0.437500 0.250000
vt 0.500000 0.312500
vt 0.500000 0.375000
vt 0.500000 0.250000
vt 0.562500 0.312500
vt 0.625000 0.312500
vt 0.562500 0.375000
vt 0.625000 0.437500
vt 0.437500 0.687500
vt 0.375000 0.687500
vt 0.500000 0.687500
vt 0.437500 0.750000
vt 0.500000 0.750000
vt 0.437500 0.562500
vt 0.375000 0.562500
vt 0.437500 0.625000
vt 0.375000 0.625000
vt 0.500000 0.562500
vt 0.500000 0.625000
vt 0.562500 0.562500
vt 0.625000 0.562500
vt 0.562500 0.625000
vt 0.625000 0.687500
vt 0.187500 0.687500
vt 0.125000 0.750000
vt 0.125000 0.687500
vt 0.250000 0.687500
vt 0.187500 0.750000
vt 0.250000 0.750000
vt 0.125000 0.500000
vt 0.187500 0.562500
vt 0.125000 0.562500
vt 0.187500 0.625000
vt 0.125000 0.625000
vt 0.187500 0.500000
vt 0.250000 0.562500
vt 0.250000 0.625000
vt 0.312500 0.500000
vt 0.250000 0.500000
vt 0.312500 0.562500
vt 0.312500 0.625000
vt 0.437500 0.187500
vt 0.375000 0.187500
vt 0.500000 0.187500
vt 0.375000 0.000000
vt 0.437500 0.062500
vt 0.375000 0.062500
vt 0.437500 0.125000
vt 0.375000 0.125000
vt 0.437500 0.000000
vt 0.500000 0.062500
vt 0.500000 0.125000
vt 0.562500 0.000000
vt 0.500000 0.000000
vt 0.562500 0.062500
vt 0.625000 0.000000
vt 0.625000 0.062500
vt 0.562500 0.125000
vt 0.625000 0.187500
vt 0.437500 0.937500
vt 0.375000 1.000000
vt 0.375000 0.937500
vt 0.500000 0.937500
vt 0.437500 1.000000
vt 0.500000 1.000000
vt 0.437500 0.812500
vt 0.375000 0.812500
vt 0.437500 0.875000
vt 0.375000 0.875000
vt 0.500000 0.812500
vt 0.500000 0.875000
vt 0.562500 0.812500
vt 0.625000 0.812500
vt 0.562500 0.875000
vt 0.625000 0.937500
vt 0.687500 0.687500
vt 0.750000 0.687500
vt 0.687500 0.750000
vt 0.750000 0.750000
vt 0.687500 0.562500
vt 0.687500 0.625000
vt 0.625000 0.625000
vt 0.687500 0.500000
vt 0.750000 0.562500
vt 0.750000 0.625000
vt 0.812500 0.500000
vt 0.750000 0.500000
vt 0.812500 0.562500
vt 0.875000 0.500000
vt 0.875000 0.562500
vt 0.812500 0.625000
vt 0.875000 0.687500
vt 0.625000 0.375000
vt 0.625000 0.125000
vt 0.625000 0.875000
vt 0.875000 0.625000
s 0
usemtl Material
f 98/1/1 7/2/1 29/3/1
f 89/4/2 7/5/2 20/6/2
f 80/7/3 5/8/3 24/9/3
f 71/10/4 4/11/4 35/12/4
f 62/13/5 3/14/5 21/15/5
f 53/16/6 1/17/6 15/18/6
f 47/19/7 2/20/7 12/21/7
f 50/22/8 17/23/8 47/19/8
f 50/22/9 15/18/9 16/24/9
f 6/25/10 45/26/10 14/27/10
f 14/27/11 46/28/11 13/29/11
f 46/28/12 12/21/12 13/29/12
f 26/30/13 48/31/13 45/26/13
f 45/26/14 49/32/14 46/28/14
f 49/32/15 47/19/15 46/28/15
f 24/9/16 48/31/16 25/33/16
f 51/34/17 49/32/17 48/31/17
f 49/32/18 53/16/18 50/22/18
f 5/8/19 51/34/19 24/9/19
f 39/35/20 52/36/20 51/34/20
f 52/36/21 41/37/21 53/16/21
f 56/38/22 4/11/22 42/39/22
f 59/40/23 23/41/23 56/38/23
f 59/40/24 21/15/24 22/42/24
f 2/20/25 54/43/25 44/44/25
f 44/44/26 55/45/26 43/46/26
f 55/45/27 42/39/27 43/46/27
f 17/23/28 57/47/28 54/43/28
f 54/43/29 58/48/29 55/45/29
f 58/48/30 56/38/30 55/45/30
f 15/18/31 57/47/31 16/24/31
f 60/49/32 58/48/32 57/47/32
f 58/48/33 62/13/33 59/40/33
f 1/17/34 60/49/34 15/18/34
f 30/50/35 61/51/35 60/49/35
f 61/51/36 32/52/36 62/13/36
f 65/53/37 8/54/37 11/55/37
f 68/56/38 33/57/38 65/53/38
f 68/56/39 35/12/39 34/58/39
f 6/59/40 63/60/40 9/61/40
f 9/61/41 64/62/41 10/63/41
f 64/62/42 11/55/42 10/63/42
f 14/64/43 66/65/43 63/60/43
f 63/60/44 67/66/44 64/62/44
f 67/66/45 65/53/45 64/62/45
f 12/67/46 66/65/46 13/68/46
f 69/69/47 67/66/47 66/65/47
f 67/66/48 71/10/48 68/56/48
f 2/20/49 69/69/49 12/67/49
f 44/44/50 70/70/50 69/69/50
f 70/70/51 42/39/51 71/10/51
f 74/71/52 6/25/52 9/72/52
f 77/73/53 26/30/53 74/71/53
f 77/73/54 24/9/54 25/33/54
f 8/74/55 72/75/55 11/76/55
f 11/76/56 73/77/56 10/78/56
f 73/77/57 9/72/57 10/78/57
f 18/79/58 75/80/58 72/75/58
f 72/75/59 76/81/59 73/77/59
f 76/81/60 74/71/60 73/77/60
f 20/82/61 75/80/61 19/83/61
f 78/84/62 76/81/62 75/80/62
f 76/81/63 80/7/63 77/73/63
f 7/85/64 78/84/64 20/82/64
f 36/86/65 79/87/65 78/84/65
f 79/87/66 38/88/66 80/7/66
f 83/89/67 8/90/67 33/91/67
f 86/92/68 18/93/68 83/89/68
f 86/92/69 20/6/69 19/94/69
f 4/11/70 81/95/70 35/96/70
f 35/96/71 82/97/71 34/98/71
f 82/97/72 33/91/72 34/98/72
f 23/41/73 84/99/73 81/95/73
f 81/95/74 85/100/74 82/97/74
f 85/100/75 83/89/75 82/97/75
f 21/15/76 84/99/76 22/42/76
f 87/101/77 85/100/77 84/99/77
f 85/100/78 89/4/78 86/92/78
f 3/14/79 87/101/79 21/15/79
f 27/102/80 88/103/80 87/101/80
f 88/103/81 29/104/81 89/4/81
f 92/105/82 3/14/82 32/52/82
f 95/106/83 27/107/83 92/105/83
f 95/106/84 29/3/84 28/108/84
f 1/17/85 90/109/85 30/50/85
f 30/50/86 91/110/86 31/111/86
f 91/110/87 32/52/87 31/111/87
f 41/112/88 93/113/88 90/109/88
f 90/109/89 94/114/89 91/110/89
f 94/114/90 92/105/90 91/110/90
f 39/115/91 93/113/91 40/116/91
f 96/117/92 94/114/92 93/113/92
f 94/114/93 98/1/93 95/106/93
f 5/118/94 96/117/94 39/115/94
f 38/119/95 97/120/95 96/117/95
f 97/120/96 36/121/96 98/1/96
f 98/1/97 36/121/97 7/2/97
f 89/4/98 29/104/98 7/5/98
f 80/7/99 38/88/99 5/8/99
f 71/10/100 42/39/100 4/11/100
f 62/13/101 32/52/101 3/14/101
f 53/16/102 41/37/102 1/17/102
f 47/19/103 17/23/103 2/20/103
f 50/22/104 16/24/104 17/23/104
f 50/22/105 53/16/105 15/18/105
f 6/25/106 26/30/106 45/26/106
f 14/27/107 45/26/107 46/28/107
f 46/28/108 47/19/108 12/21/108
f 26/30/109 25/33/109 48/31/109
f 45/26/110 48/31/110 49/32/110
f 49/32/111 50/22/111 47/19/111
f 24/9/112 51/34/112 48/31/112
f 51/34/113 52/36/113 49/32/113
f 49/32/114 52/36/114 53/16/114
f 5/8/115 39/35/115 51/34/115
f 39/35/116 40/122/116 52/36/116
f 52/36/117 40/122/117 41/37/117
f 56/38/118 23/41/118 4/11/118
f 59/40/119 22/42/119 23/41/119
f 59/40/120 62/13/120 21/15/120
f 2/20/121 17/23/121 54/43/121
f 44/44/122 54/43/122 55/45/122
f 55/45/123 56/38/123 42/39/123
f 17/23/124 16/24/124 57/47/124
f 54/43/125 57/47/125 58/48/125
f 58/48/126 59/40/126 56/38/126
f 15/18/127 60/49/127 57/47/127
f 60/49/128 61/51/128 58/48/128
f 58/48/129 61/51/129 62/13/129
f 1/17/130 30/50/130 60/49/130
f 30/50/131 31/111/131 61/51/131
f 61/51/132 31/111/132 32/52/132
f 65/53/133 33/57/133 8/54/133
f 68/56/134 34/58/134 33/57/134
f 68/56/135 71/10/135 35/12/135
f 6/59/136 14/64/136 63/60/136
f 9/61/137 63/60/137 64/62/137
f 64/62/138 65/53/138 11/55/138
f 14/64/139 13/68/139 66/65/139
f 63/60/140 66/65/140 67/66/140
f 67/66/141 68/56/141 65/53/141
f 12/67/142 69/69/142 66/65/142
f 69/69/143 70/70/143 67/66/143
f 67/66/144 70/70/144 71/10/144
f 2/20/145 44/44/145 69/69/145
f 44/44/146 43/46/146 70/70/146
f 70/70/147 43/46/147 42/39/147
f 74/71/148 26/30/148 6/25/148
f 77/73/149 25/33/149 26/30/149
f 77/73/150 80/7/150 24/9/150
f 8/74/151 18/79/151 72/75/151
f 11/76/152 72/75/152 73/77/152
f 73/77/153 74/71/153 9/72/153
f 18/79/154 19/83/154 75/80/154
f 72/75/155 75/80/155 76/81/155
f 76/81/156 77/73/156 74/71/156
f 20/82/157 78/84/157 75/80/157
f 78/84/158 79/87/158 76/81/158
f 76/81/159 79/87/159 80/7/159
f 7/85/160 36/86/160 78/84/160
f 36/86/161 37/123/161 79/87/161
f 79/87/162 37/123/162 38/88/162
f 83/89/163 18/93/163 8/90/163
f 86/92/164 19/94/164 18/93/164
f 86/92/165 89/4/165 20/6/165
f 4/11/166 23/41/166 81/95/166
f 35/96/167 81/95/167 82/97/167
f 82/97/168 83/89/168 33/91/168
f 23/41/169 22/42/169 84/99/169
f 81/95/170 84/99/170 85/100/170
f 85/100/171 86/92/171 83/89/171
f 21/15/172 87/101/172 84/99/172
f 87/101/173 88/103/173 85/100/173
f 85/100/174 88/103/174 89/4/174
f 3/14/175 27/102/175 87/101/175
f 27/102/176 28/124/176 88/103/176
f 88/103/177 28/124/177 29/104/177
f 92/105/178 27/107/178 3/14/178
f 95/106/179 28/108/179 27/107/179
f 95/106/180 98/1/180 29/3/180
f 1/17/181 41/112/181 90/109/181
f 30/50/182 90/109/182 91/110/182
f 91/110/183 92/105/183 32/52/183
f 41/112/184 40/116/184 93/113/184
f 90/109/185 93/113/185 94/114/185
f 94/114/186 95/106/186 92/105/186
f 39/115/187 96/117/187 93/113/187
f 96/117/188 97/120/188 94/114/188
f 94/114/189 97/120/189 98/1/189
f 5/118/190 38/119/190 96/117/190
f 38/119/191 37/125/191 97/120/191
f 97/120/192 37/125/192 36/121/192